<?xml version="1.0" standalone="no"?>
<!DOCTYPE svg PUBLIC "-//W3C//DTD SVG 20010904//EN"
 "http://www.w3.org/TR/2001/REC-SVG-20010904/DTD/svg10.dtd">
<svg version="1.0" xmlns="http://www.w3.org/2000/svg"
 width="60.000000pt" height="60.000000pt" viewBox="0 0 60.000000 60.000000"
 preserveAspectRatio="xMidYMid meet">

<g transform="translate(0.000000,60.000000) scale(0.100000,-0.100000)"
fill="#000000" stroke="none">
<path d="M259 530 c-54 -10 -126 -56 -154 -98 -90 -137 -11 -331 148 -361 128
-24 253 58 276 182 30 163 -110 308 -270 277z m51 -28 c0 -4 -5 -13 -11 -19
-8 -8 -5 -19 11 -41 30 -40 18 -83 -28 -96 -46 -13 -82 13 -82 59 0 25 -5 35
-20 40 -30 10 -24 21 23 44 41 21 107 29 107 13z m169 -86 c10 -17 22 -42 26
-55 7 -22 5 -23 -18 -17 -20 5 -30 0 -45 -19 -28 -35 -74 -34 -100 3 -27 38
-13 77 34 92 26 9 34 17 34 36 0 24 1 24 25 8 13 -9 33 -30 44 -48z m-360 -70
c11 -13 17 -13 47 0 30 13 37 13 59 -2 25 -16 34 -57 17 -79 -21 -29 -39 -35
-72 -23 -29 10 -35 9 -47 -8 -20 -28 -33 -2 -33 69 0 57 8 69 29 43z m318 -87
c14 -23 24 -29 41 -26 12 2 22 -1 22 -7 0 -18 -49 -85 -70 -96 -17 -9 -20 -8
-20 13 0 17 -8 25 -32 32 -18 6 -38 21 -45 34 -10 21 -9 29 8 53 29 40 72 39
96 -3z m-149 -16 c37 -9 47 -51 22 -85 -17 -23 -19 -32 -9 -49 11 -21 10 -22
-35 -17 -25 3 -58 14 -73 23 l-27 18 22 10 c17 8 22 18 22 48 0 50 25 67 78
52z"/>
</g>
</svg>
