<?xml version="1.0" standalone="no"?>
<!DOCTYPE svg PUBLIC "-//W3C//DTD SVG 20010904//EN"
 "http://www.w3.org/TR/2001/REC-SVG-20010904/DTD/svg10.dtd">
<svg version="1.0" xmlns="http://www.w3.org/2000/svg"
 width="60.000000pt" height="60.000000pt" viewBox="0 0 60.000000 60.000000"
 preserveAspectRatio="xMidYMid meet">

<g transform="translate(0.000000,60.000000) scale(0.100000,-0.100000)"
fill="#000000" stroke="none">
<path d="M263 505 c-43 -34 -58 -83 -44 -140 15 -60 14 -90 -4 -105 -13 -11
-15 -8 -15 22 0 34 -23 78 -41 78 -5 0 -9 -15 -9 -34 0 -22 -9 -45 -25 -64
-64 -77 -49 -136 48 -177 47 -19 50 -19 35 4 -9 16 -8 30 7 75 20 60 28 66 45
39 9 -17 12 -16 31 7 15 17 19 32 15 53 -6 29 -5 29 17 14 17 -12 22 -24 22
-60 0 -44 1 -45 18 -26 20 22 31 25 24 7 -2 -7 4 -28 15 -45 12 -20 17 -41 13
-54 l-7 -20 42 21 c73 37 81 86 31 187 -12 23 -21 59 -21 79 0 35 -1 36 -22
22 -13 -8 -30 -29 -38 -47 l-16 -31 -33 32 c-50 49 -64 84 -58 140 3 26 5 48
4 48 -1 0 -16 -11 -34 -25z"/>
</g>
</svg>
