<?xml version="1.0" standalone="no"?>
<!DOCTYPE svg PUBLIC "-//W3C//DTD SVG 20010904//EN"
 "http://www.w3.org/TR/2001/REC-SVG-20010904/DTD/svg10.dtd">
<svg version="1.0" xmlns="http://www.w3.org/2000/svg"
 width="60.000000pt" height="60.000000pt" viewBox="0 0 60.000000 60.000000"
 preserveAspectRatio="xMidYMid meet">

<g transform="translate(0.000000,60.000000) scale(0.100000,-0.100000)"
fill="#000000" stroke="none">
<path d="M200 487 c-23 -12 -42 -26 -42 -30 0 -4 8 -37 17 -72 17 -63 19 -65
50 -65 31 0 32 0 50 83 11 45 21 88 23 95 6 20 -51 14 -98 -11z"/>
<path d="M329 483 c-10 -27 -39 -141 -39 -155 0 -5 18 -8 39 -8 39 0 39 0 50
50 6 28 18 64 26 81 16 30 16 30 -19 44 -46 19 -45 20 -57 -12z"/>
<path d="M427 423 c-8 -21 -18 -53 -22 -70 l-7 -33 56 0 c65 0 69 8 35 76 -31
66 -44 71 -62 27z"/>
<path d="M105 386 c-23 -55 -20 -66 20 -66 39 0 39 0 25 52 -15 52 -28 56 -45
14z"/>
<path d="M90 265 c0 -27 29 -87 39 -80 9 5 31 67 31 88 0 4 -16 7 -35 7 -25 0
-35 -4 -35 -15z"/>
<path d="M176 217 c-11 -34 -20 -66 -20 -71 -1 -14 83 -56 111 -56 12 0 23 1
23 3 0 1 -7 20 -15 42 -8 22 -14 64 -15 93 0 52 0 52 -32 52 -32 0 -34 -3 -52
-63z"/>
<path d="M290 238 c0 -50 14 -106 33 -132 12 -16 18 -17 50 -7 20 7 39 16 42
20 2 5 -5 26 -16 47 -11 21 -22 56 -26 77 -5 35 -7 37 -44 37 l-39 0 0 -42z"/>
<path d="M405 243 c8 -44 32 -93 44 -93 14 0 50 63 57 99 l7 31 -58 0 -57 0 7
-37z"/>
</g>
</svg>
