<?xml version="1.0" standalone="no"?>
<!DOCTYPE svg PUBLIC "-//W3C//DTD SVG 20010904//EN"
 "http://www.w3.org/TR/2001/REC-SVG-20010904/DTD/svg10.dtd">
<svg version="1.0" xmlns="http://www.w3.org/2000/svg"
 width="60.000000pt" height="60.000000pt" viewBox="0 0 60.000000 60.000000"
 preserveAspectRatio="xMidYMid meet">

<g transform="translate(0.000000,60.000000) scale(0.100000,-0.100000)"
fill="#000000" stroke="none">
<path d="M160 515 c0 -22 -4 -25 -34 -25 -60 0 -66 -19 -66 -217 0 -231 -20
-213 240 -213 260 0 240 -18 240 213 0 198 -6 217 -66 217 -30 0 -34 3 -34 25
0 18 -5 25 -20 25 -15 0 -20 -7 -20 -25 l0 -25 -100 0 -100 0 0 25 c0 18 -5
25 -20 25 -15 0 -20 -7 -20 -25z m338 -287 l-3 -123 -195 0 -195 0 -3 123 -3
122 201 0 201 0 -3 -122z"/>
<path d="M160 280 c0 -18 7 -20 55 -20 48 0 55 2 55 20 0 18 -7 20 -55 20 -48
0 -55 -2 -55 -20z"/>
<path d="M330 280 c0 -18 7 -20 55 -20 48 0 55 2 55 20 0 18 -7 20 -55 20 -48
0 -55 -2 -55 -20z"/>
<path d="M160 180 c0 -18 7 -20 55 -20 48 0 55 2 55 20 0 18 -7 20 -55 20 -48
0 -55 -2 -55 -20z"/>
<path d="M330 180 c0 -18 7 -20 55 -20 48 0 55 2 55 20 0 18 -7 20 -55 20 -48
0 -55 -2 -55 -20z"/>
</g>
</svg>
