<?xml version="1.0" standalone="no"?>
<!DOCTYPE svg PUBLIC "-//W3C//DTD SVG 20010904//EN"
 "http://www.w3.org/TR/2001/REC-SVG-20010904/DTD/svg10.dtd">
<svg version="1.0" xmlns="http://www.w3.org/2000/svg"
 width="29.000000pt" height="27.000000pt" viewBox="0 0 29.000000 27.000000"
 preserveAspectRatio="xMidYMid meet">

<g transform="translate(0.000000,27.000000) scale(0.100000,-0.100000)"
fill="#000000" stroke="none">
<path d="M2 258 c4 -10 39 -13 141 -13 189 0 187 19 -1 23 -113 2 -143 0 -140
-10z"/>
<path d="M3 178 c3 -10 40 -13 142 -13 102 0 139 3 143 13 3 9 -30 12 -143 12
-113 0 -146 -3 -142 -12z"/>
<path d="M152 118 c-23 -30 -23 -56 2 -85 22 -25 27 -27 54 -17 22 9 33 8 47
-3 13 -9 22 -10 29 -3 7 7 3 15 -12 26 -14 9 -22 26 -22 43 0 15 -5 32 -12 39
-16 16 -73 15 -86 0z m73 -36 c3 -8 -1 -22 -9 -30 -17 -17 -44 -10 -53 14 -4
10 1 22 11 30 21 15 42 9 51 -14z"/>
<path d="M2 98 c5 -15 97 -18 101 -3 1 6 -22 11 -52 13 -40 2 -52 0 -49 -10z"/>
<path d="M2 18 c5 -15 97 -18 101 -3 1 6 -22 11 -52 13 -40 2 -52 0 -49 -10z"/>
</g>
</svg>
