<?xml version="1.0" standalone="no"?>
<!DOCTYPE svg PUBLIC "-//W3C//DTD SVG 20010904//EN"
 "http://www.w3.org/TR/2001/REC-SVG-20010904/DTD/svg10.dtd">
<svg version="1.0" xmlns="http://www.w3.org/2000/svg"
 width="60.000000pt" height="60.000000pt" viewBox="0 0 60.000000 60.000000"
 preserveAspectRatio="xMidYMid meet">

<g transform="translate(0.000000,60.000000) scale(0.100000,-0.100000)"
fill="#000000" stroke="none">
<path d="M290 533 c-81 -26 -113 -96 -73 -163 56 -95 203 -55 203 55 0 64 -75
126 -130 108z"/>
<path d="M220 271 c-38 -12 -105 -48 -118 -64 -16 -19 -18 -95 -3 -110 17 -17
405 -17 422 0 7 7 12 32 11 55 -2 52 -37 87 -114 112 -52 16 -154 20 -198 7z
m160 -91 c0 -18 -7 -20 -80 -20 -73 0 -80 2 -80 20 0 18 7 20 80 20 73 0 80
-2 80 -20z"/>
</g>
</svg>
